/* XPM */
static char *_fcd4b5d22b94bab8a45561efe672162cOo35jiSGHSAgYPf[] = {
/* columns rows colors chars-per-pixel */
"64 64 154 2 ",
"   c #020202",
".  c #080600",
"X  c #0B0900",
"o  c #050608",
"O  c #0B0B0B",
"+  c #100E00",
"@  c #141100",
"#  c #1B1500",
"$  c #1E1A00",
"%  c #0D0E10",
"&  c #0F1011",
"*  c #131314",
"=  c #161618",
"-  c #17181A",
";  c #1B1B1C",
":  c #231D00",
">  c #272200",
",  c #2C2300",
"<  c #362D00",
"1  c #3F3700",
"2  c #20201E",
"3  c #232324",
"4  c #26272A",
"5  c #27282C",
"6  c #2D2D2E",
"7  c #343435",
"8  c #373738",
"9  c #3C3C3C",
"0  c #433B00",
"q  c #4D3C00",
"w  c #503F00",
"e  c #4B4200",
"r  c #534200",
"t  c #554B00",
"y  c #5E4900",
"u  c #645200",
"i  c #655900",
"p  c #695D00",
"a  c #725A00",
"s  c #736600",
"d  c #7E6C00",
"f  c #424243",
"g  c #474749",
"h  c #4B4B4C",
"j  c #4E4E51",
"k  c #4F5052",
"l  c #545454",
"z  c #5B5B5C",
"x  c #646464",
"c  c #67686A",
"v  c #6B6B6B",
"b  c #6F6F71",
"n  c #757575",
"m  c #7B7B7B",
"M  c #816500",
"N  c #8B6E00",
"B  c #847400",
"V  c #967600",
"C  c #997800",
"Z  c #A17F00",
"A  c #83782D",
"S  c #948200",
"D  c #9C8900",
"F  c #AA8600",
"G  c #B18C00",
"H  c #B19C00",
"J  c #BE9A00",
"K  c #BAA400",
"L  c #BFA900",
"P  c #C29B00",
"I  c #C4AD00",
"U  c #DBAD00",
"Y  c #CEB500",
"T  c #DBB300",
"R  c #D4BB00",
"E  c #D8BE00",
"W  c #E3B500",
"Q  c #F0BE00",
"!  c #DEC400",
"~  c #ECC501",
"^  c #E5CA00",
"/  c #EACF00",
"(  c #F4C300",
")  c #F8C500",
"_  c #F6CB01",
"`  c #F9CA00",
"'  c #F7CE0D",
"]  c #EED200",
"[  c #F5D500",
"{  c #F9D103",
"}  c #F6D901",
"|  c #F9DB00",
" . c #FAD70D",
".. c #F6DA0A",
"X. c #F6D417",
"o. c #F7DC14",
"O. c #F6D31D",
"+. c #F7DD1C",
"@. c #FADF18",
"#. c #F7DE23",
"$. c #F8DD25",
"%. c #F8DE2A",
"&. c #F8DA36",
"*. c #F9E12F",
"=. c #F8E034",
"-. c #F9E23C",
";. c #AFA555",
":. c #A19D6C",
">. c #F9E241",
",. c #F9E44C",
"<. c #F9E654",
"1. c #FEEA53",
"2. c #FAE65A",
"3. c #FAE761",
"4. c #FAE866",
"5. c #FBE96B",
"6. c #FBEA74",
"7. c #FBEC7B",
"8. c #FEF27F",
"9. c #838383",
"0. c #8C8C8C",
"q. c #8F8F90",
"w. c #929292",
"e. c #9B9B9B",
"r. c #A3A3A3",
"t. c #ACACAC",
"y. c #B3B3B3",
"u. c #BCBCBC",
"i. c #FCEE84",
"p. c #FCEE8A",
"a. c #FDF08E",
"s. c #FBEF93",
"d. c #FCEF99",
"f. c #FDF295",
"g. c #FDF49A",
"h. c #FEF6A5",
"j. c #FDF3AA",
"k. c #FEF9AD",
"l. c #FFFAB2",
"z. c #C4C4C4",
"x. c #CCCCCC",
"c. c #D3D3D3",
"v. c #DBDBDB",
"b. c #FFFAC5",
"n. c #FDF8CA",
"m. c #FEFAD4",
"M. c #FEF9DB",
"N. c #E5E5E5",
"B. c #EBEBEB",
"V. c #FFFDE4",
"C. c #FEFCEE",
"Z. c #F7F7F7",
"A. c #FEFDF3",
"S. c #FAFAFA",
/* pixels */
"Z.Z.Z.Z.Z.Z.Z.Z.Z.Z.Z.Z.Z.Z.Z.Z.Z.Z.Z.Z.Z.Z.Z.Z.Z.Z.Z.Z.Z.Z.Z.Z.Z.Z.Z.Z.Z.Z.Z.Z.Z.Z.Z.Z.Z.Z.Z.Z.Z.Z.Z.Z.Z.Z.Z.Z.Z.Z.Z.Z.Z.Z.Z.Z.",
"Z.Z.Z.Z.Z.Z.Z.Z.Z.Z.Z.Z.Z.Z.Z.Z.Z.Z.Z.Z.Z.S.Z.Z.Z.Z.Z.Z.Z.Z.Z.Z.Z.Z.Z.Z.Z.Z.Z.Z.Z.Z.Z.Z.Z.Z.Z.Z.Z.Z.Z.Z.Z.Z.Z.Z.Z.S.Z.Z.Z.Z.Z.Z.",
"Z.Z.Z.Z.Z.Z.Z.Z.Z.Z.Z.Z.Z.Z.Z.Z.Z.Z.Z.Z.Z.Z.Z.Z.Z.Z.Z.Z.Z.Z.Z.Z.S.Z.Z.Z.Z.Z.Z.Z.Z.Z.Z.Z.Z.Z.Z.Z.Z.Z.Z.Z.Z.Z.Z.Z.Z.Z.Z.Z.Z.Z.Z.Z.",
"Z.Z.Z.Z.Z.Z.Z.Z.Z.Z.Z.Z.Z.Z.Z.Z.Z.Z.Z.Z.Z.Z.Z.Z.Z.Z.Z.Z.Z.Z.Z.u.9.N.Z.Z.Z.Z.Z.Z.Z.Z.Z.Z.Z.Z.Z.Z.Z.Z.Z.Z.Z.Z.Z.Z.Z.Z.Z.Z.Z.Z.Z.Z.",
"Z.Z.Z.Z.Z.Z.Z.Z.Z.Z.Z.Z.Z.Z.Z.Z.Z.Z.Z.Z.Z.Z.Z.Z.Z.Z.Z.Z.Z.Z.S.m O u.S.Z.Z.Z.Z.Z.Z.Z.Z.Z.Z.Z.Z.Z.Z.Z.Z.Z.Z.Z.Z.Z.Z.Z.Z.Z.Z.Z.Z.Z.",
"Z.Z.Z.Z.Z.Z.Z.Z.Z.Z.Z.Z.Z.Z.S.Z.Z.Z.Z.Z.Z.Z.Z.Z.Z.Z.Z.Z.Z.Z.S.n o u.S.Z.Z.Z.Z.Z.Z.Z.Z.Z.Z.Z.Z.Z.Z.Z.Z.Z.Z.Z.Z.Z.Z.Z.Z.Z.Z.Z.Z.Z.",
"Z.Z.Z.Z.Z.Z.Z.Z.Z.Z.Z.Z.Z.Z.Z.Z.Z.Z.Z.Z.Z.Z.Z.Z.Z.Z.S.Z.Z.Z.S.n   u.S.Z.Z.Z.Z.Z.Z.Z.Z.Z.Z.Z.Z.Z.Z.Z.Z.Z.Z.Z.Z.Z.Z.Z.Z.Z.Z.Z.Z.S.",
"Z.Z.Z.Z.Z.Z.Z.Z.Z.Z.Z.Z.Z.Z.Z.Z.Z.Z.Z.Z.Z.Z.Z.Z.Z.Z.Z.Z.Z.Z.S.m o u.S.Z.Z.Z.Z.Z.Z.Z.Z.Z.Z.Z.Z.Z.Z.Z.Z.Z.Z.Z.Z.Z.Z.Z.Z.Z.Z.Z.Z.Z.",
"Z.Z.Z.Z.Z.Z.Z.Z.Z.Z.S.Z.Z.Z.Z.Z.Z.Z.Z.Z.Z.Z.Z.Z.Z.Z.Z.Z.Z.Z.S.m   u.Z.Z.Z.Z.Z.Z.Z.Z.Z.Z.Z.Z.S.Z.Z.Z.Z.Z.Z.Z.Z.Z.Z.Z.Z.S.Z.Z.Z.Z.",
"Z.Z.Z.Z.Z.Z.Z.Z.Z.Z.Z.Z.Z.Z.Z.Z.Z.Z.Z.Z.Z.Z.Z.Z.Z.Z.Z.Z.Z.Z.S.n o u.Z.Z.Z.Z.Z.Z.Z.Z.Z.Z.Z.Z.Z.Z.Z.S.Z.Z.Z.Z.Z.Z.Z.Z.Z.Z.Z.Z.Z.Z.",
"S.Z.Z.Z.Z.Z.Z.Z.Z.Z.Z.Z.Z.Z.Z.Z.Z.Z.Z.Z.Z.Z.Z.Z.Z.Z.Z.Z.Z.Z.S.n o u.S.Z.Z.Z.Z.Z.Z.Z.S.Z.Z.Z.Z.Z.x.z.Z.Z.S.Z.Z.Z.Z.Z.Z.Z.Z.Z.Z.Z.",
"Z.Z.Z.Z.Z.Z.Z.Z.Z.Z.Z.Z.Z.N.x e.Z.Z.Z.Z.Z.Z.Z.Z.Z.Z.Z.Z.Z.Z.S.n X u.S.Z.Z.Z.Z.Z.Z.Z.Z.Z.Z.Z.Z.z.3 9 B.Z.Z.Z.Z.Z.Z.Z.Z.Z.Z.Z.Z.Z.",
"Z.Z.Z.Z.Z.Z.Z.Z.Z.Z.Z.Z.Z.c.; * t.Z.Z.Z.Z.Z.Z.Z.Z.Z.Z.Z.Z.Z.S.t.x v.Z.Z.Z.Z.Z.Z.Z.Z.Z.Z.Z.Z.c.7   m Z.Z.Z.Z.Z.Z.Z.Z.S.Z.Z.Z.Z.Z.",
"Z.Z.Z.Z.Z.Z.Z.Z.Z.Z.Z.Z.Z.Z.w.O 2 u.S.Z.Z.Z.Z.Z.Z.Z.Z.Z.Z.S.S.S.S.S.Z.Z.Z.Z.Z.Z.Z.Z.Z.Z.S.v.f   x B.Z.Z.Z.Z.Z.Z.Z.Z.Z.Z.Z.Z.Z.Z.",
"Z.Z.Z.Z.Z.Z.Z.Z.Z.Z.Z.Z.Z.Z.Z.9.o 6 x.S.Z.Z.Z.Z.Z.Z.S.S.Z.c.u.u.u.z.N.Z.S.Z.Z.Z.Z.Z.Z.Z.B.l   h N.Z.Z.Z.Z.Z.Z.Z.Z.Z.Z.Z.Z.Z.Z.Z.",
"Z.Z.Z.Z.Z.Z.Z.Z.Z.Z.Z.Z.Z.Z.Z.B.x   9 v.Z.Z.Z.Z.Z.S.v.q.g ; O o o % 4 z t.B.Z.Z.Z.Z.Z.B.b   9 c.Z.Z.Z.Z.Z.Z.Z.Z.Z.Z.Z.Z.Z.Z.Z.Z.",
"Z.Z.Z.Z.Z.Z.S.Z.Z.Z.Z.Z.Z.Z.Z.Z.B.l   l N.Z.Z.Z.B.w.4   @ 0 p B d u < X o f y.Z.Z.Z.S.r.o 6 x.S.Z.Z.Z.Z.Z.Z.Z.Z.Z.Z.Z.Z.Z.Z.Z.Z.",
"Z.Z.Z.Z.Z.Z.Z.Z.Z.Z.Z.Z.Z.Z.Z.Z.Z.v.g O z.Z.S.c.h   > B Y ] | | | } / L p + % m B.Z.S.t.f u.S.Z.Z.Z.Z.Z.Z.Z.Z.Z.Z.Z.Z.Z.S.Z.Z.Z.",
"Z.Z.Z.Z.Z.Z.Z.Z.Z.Z.Z.Z.Z.Z.Z.Z.Z.Z.c.r.B.S.x.7   p E | | } } } } } } | } L 0   z B.S.Z.B.S.Z.Z.Z.Z.Z.Z.Z.Z.Z.Z.Z.Z.Z.Z.Z.Z.Z.Z.",
"Z.Z.Z.Z.Z.Z.Z.Z.Z.Z.Z.Z.Z.Z.Z.Z.Z.Z.Z.S.S.x.6 X S [ | } } } } } ..=.<.>...| ^ i   x B.Z.Z.S.Z.Z.Z.Z.Z.Z.Z.Z.Z.Z.Z.Z.Z.Z.Z.Z.Z.Z.",
"Z.Z.Z.Z.Z.Z.Z.Z.Z.Z.Z.Z.Z.Z.Z.Z.Z.Z.Z.Z.N.h X S } } } } } } } @.s.A.S.A.k.$.| ] p o 9.Z.Z.Z.Z.Z.Z.Z.Z.Z.Z.Z.Z.Z.Z.Z.Z.Z.Z.Z.Z.Z.",
"S.Z.Z.Z.Z.Z.Z.Z.Z.Z.Z.Z.Z.Z.Z.Z.Z.Z.Z.Z.m   M } } } } } +.>.2.j.S.S.S.S.S.j...| ^ e & y.S.Z.Z.Z.Z.Z.Z.Z.Z.Z.Z.Z.Z.S.Z.Z.Z.Z.Z.Z.",
"Z.Z.Z.Z.Z.Z.Z.Z.Z.Z.Z.Z.Z.Z.Z.Z.Z.Z.Z.z.= q ~ | } } o.,.6.6.i.C.S.S.S.S.S.A.-.} | Y $ f B.Z.Z.Z.Z.Z.Z.Z.Z.Z.Z.S.Z.Z.Z.Z.Z.Z.Z.Z.",
"Z.Z.Z.Z.Z.Z.Z.Z.Z.Z.Z.Z.Z.Z.Z.Z.Z.Z.Z.x X J | } } +.2.6.6.6.f.S.S.S.S.S.S.S.4.} | | B o e.S.Z.Z.Z.Z.Z.Z.Z.Z.Z.Z.Z.Z.Z.Z.Z.Z.Z.Z.",
"Z.Z.Z.Z.Z.Z.Z.Z.Z.Z.Z.Z.Z.Z.Z.Z.Z.Z.c.- y _ } } o.3.6.6.6.6.d.S.S.S.S.S.S.S.f...} | ! > g B.Z.Z.Z.Z.Z.Z.Z.Z.Z.Z.Z.Z.Z.Z.Z.Z.Z.Z.",
"Z.Z.Z.Z.Z.Z.Z.Z.Z.Z.Z.Z.Z.Z.Z.Z.Z.S.0.X G [ } } ,.7.6.6.6.6.p.C.S.S.S.S.S.S.g.=.} } | s & x.S.Z.Z.Z.Z.Z.Z.Z.Z.Z.Z.Z.Z.Z.Z.Z.Z.Z.",
"Z.Z.Z.Z.Z.Z.Z.Z.Z.Z.Z.Z.Z.Z.Z.Z.Z.Z.l , W } } %.6.6.6.6.6.6.7.n.S.S.S.S.S.m.7.4.o.} | K X w.S.Z.Z.Z.Z.Z.Z.Z.Z.Z.Z.Z.Z.Z.S.Z.Z.Z.",
"Z.Z.Z.Z.Z.Z.Z.Z.Z.Z.Z.Z.Z.Z.Z.Z.Z.N.4 y ( } } ,.6.6.6.6.7.f.k.l.V.S.S.S.M.p.6.6.-.} | ! > z S.Z.Z.Z.Z.Z.Z.Z.Z.Z.Z.Z.Z.Z.Z.Z.Z.Z.",
"Z.Z.Z.Z.Z.Z.Z.Z.S.S.Z.S.S.S.Z.Z.Z.x.* M ` } o.5.6.6.6.i.h.l.l.l.l.b.m.b.p.6.6.6.2.} } ] 1 f B.Z.Z.Z.S.S.Z.S.S.S.S.S.Z.Z.Z.Z.Z.Z.",
"Z.Z.Z.Z.Z.Z.z.r.r.r.r.r.r.y.B.Z.S.z.O V ` } $.6.6.6.6.h.l.l.l.l.l.k.l.l.g.6.6.6.5.o.} } t 7 B.Z.Z.B.r.w.w.0.w.w.w.t.B.Z.Z.Z.Z.Z.",
"Z.Z.Z.Z.Z.B.8             O y.Z.S.z.% C ` } =.6.6.6.p.l.l.l.l.l.l.l.l.l.k.i.6.6.6.+.} } t 7 B.Z.Z.u.O             4 N.Z.Z.Z.Z.Z.",
"Z.Z.Z.Z.Z.Z.0.l z l l l l x v.Z.Z.x.* N ` | -.6.6.7.h.l.l.l.l.l.l.l.l.l.l.g.6.6.6.%.} [ 0 9 Z.Z.Z.N.0.m n m m m n e.Z.Z.Z.Z.Z.Z.",
"Z.Z.Z.Z.Z.Z.Z.Z.Z.Z.Z.Z.Z.Z.Z.Z.Z.v.- a ` } =.7.6.7.k.l.l.l.l.l.l.l.l.l.l.h.7.6.6.#.} ] < j Z.Z.Z.Z.Z.S.S.S.S.S.S.S.Z.Z.Z.Z.Z.Z.",
"Z.Z.Z.Z.Z.Z.Z.Z.Z.Z.Z.Z.Z.Z.Z.Z.Z.N.7 q Q [ *.6.6.i.k.l.l.k.l.l.l.l.l.l.l.h.7.6.6.+.} E # b S.Z.Z.Z.Z.Z.Z.Z.Z.Z.Z.Z.Z.Z.Z.Z.Z.Z.",
"Z.Z.Z.Z.Z.Z.Z.Z.Z.Z.Z.Z.Z.Z.Z.Z.Z.Z.z : U ` +.5.6.7.k.l.l.l.l.l.l.l.l.l.l.h.6.6.4...} H X r.Z.S.Z.Z.Z.Z.Z.Z.Z.Z.Z.Z.Z.Z.Z.Z.Z.Z.",
"Z.Z.Z.Z.Z.Z.Z.Z.Z.Z.Z.Z.Z.Z.Z.Z.Z.Z.e.. F ` ..3.6.7.h.l.l.l.l.l.l.l.l.l.l.h.6.6.,.} } p - x.Z.S.Z.Z.Z.Z.Z.Z.Z.Z.Z.Z.Z.Z.Z.Z.Z.Z.",
"Z.Z.Z.Z.Z.Z.Z.Z.Z.Z.Z.Z.Z.Z.Z.Z.Z.S.c.; w Q { -.6.6.g.l.l.l.l.l.l.l.l.l.l.a.6.6.*.| R $ l B.Z.Z.Z.Z.Z.Z.Z.Z.Z.Z.Z.Z.Z.Z.Z.Z.Z.Z.",
"Z.Z.Z.Z.Z.Z.Z.Z.Z.Z.Z.Z.Z.Z.Z.Z.Z.Z.Z.b X G ` X.5.6.i.k.l.l.l.l.l.l.l.l.h.7.6.2...} s O t.S.Z.Z.Z.Z.Z.Z.Z.Z.Z.Z.Z.Z.Z.Z.Z.Z.Z.Z.",
"Z.Z.Z.Z.Z.Z.Z.Z.Z.Z.Z.Z.Z.Z.Z.Z.Z.Z.Z.x.3 < U _ =.6.6.a.l.l.l.l.l.l.l.k.i.6.5.*.| H X k B.Z.Z.Z.Z.Z.Z.Z.Z.Z.Z.Z.Z.Z.Z.Z.Z.Z.Z.Z.",
"Z.Z.Z.Z.Z.Z.Z.Z.Z.Z.Z.Z.Z.Z.Z.Z.Z.Z.Z.S.w.o r W { >.6.6.f.h.l.l.l.l.h.a.6.5.*.| I > 3 x.Z.S.Z.Z.Z.Z.Z.Z.Z.Z.Z.S.Z.Z.S.Z.Z.Z.Z.Z.",
"Z.Z.Z.Z.Z.Z.Z.Z.Z.Z.Z.Z.Z.Z.Z.Z.Z.Z.Z.Z.B.n   w U ' &.6.6.7.a.f.f.p.6.6.5.*.| H , * t.S.Z.Z.Z.Z.Z.Z.Z.Z.Z.Z.Z.Z.Z.Z.Z.Z.Z.Z.Z.Z.",
"Z.Z.Z.Z.Z.Z.Z.Z.Z.Z.Z.Z.Z.Z.Z.Z.Z.S.Z.Z.S.B.b o , Z ( $.<.5.6.6.6.6.5.,.@.! d @ - r.Z.Z.Z.Z.Z.Z.Z.Z.Z.Z.Z.Z.Z.Z.Z.Z.Z.Z.Z.Z.Z.Z.",
"Z.Z.Z.Z.Z.Z.Z.Z.Z.Z.Z.Z.Z.Z.Z.Z.Z.z.N.Z.Z.Z.B.w.- . w P ` X.%.-.&.$.o.[ D <   8 y.Z.Z.Z.Z.S.S.Z.Z.Z.Z.Z.Z.Z.Z.Z.Z.Z.Z.Z.Z.Z.S.Z.",
"Z.Z.Z.Z.Z.Z.Z.Z.Z.Z.Z.Z.Z.Z.Z.Z.t.* b Z.Z.Z.Z.Z.z.z o u ) Q ( ( _ _ _ T : - m N.Z.Z.Z.Z.Z.z.t.Z.Z.Z.Z.Z.Z.Z.Z.Z.Z.Z.Z.Z.Z.Z.Z.Z.",
"Z.Z.Z.Z.Z.Z.Z.Z.Z.Z.Z.Z.Z.Z.S.u.2 o e.Z.Z.Z.Z.Z.S.N.5 y ) Q ( ( O.&.' U # x Z.Z.S.Z.Z.Z.B.h * t.S.S.Z.Z.Z.Z.Z.Z.Z.Z.Z.Z.Z.Z.Z.Z.",
"Z.Z.Z.Z.Z.Z.Z.Z.Z.Z.Z.Z.Z.Z.c.6   n Z.Z.Z.Z.Z.Z.Z.N.6 y ) ( Q ' 5.f.>.T # c S.Z.Z.Z.Z.Z.S.e.O ; y.S.Z.Z.Z.Z.Z.Z.Z.Z.Z.Z.Z.Z.Z.Z.",
"Z.Z.Z.Z.Z.Z.Z.Z.Z.Z.Z.Z.Z.v.f   c B.Z.Z.Z.Z.Z.Z.Z.B.6 y ( ) )  .8.k.1.E # x Z.Z.Z.Z.Z.Z.Z.Z.m   6 x.S.Z.Z.Z.Z.Z.Z.Z.Z.Z.Z.Z.Z.Z.",
"Z.Z.Z.Z.Z.Z.Z.Z.Z.Z.Z.Z.N.l   l B.S.Z.Z.Z.Z.Z.Z.Z.N.6 # u N Z H ;.:.A e   n Z.Z.S.Z.Z.Z.Z.Z.B.v   9 v.Z.Z.Z.Z.S.Z.Z.Z.Z.Z.Z.Z.Z.",
"Z.Z.Z.Z.Z.Z.Z.Z.Z.Z.Z.Z.m   9 v.S.Z.Z.Z.Z.Z.Z.Z.Z.B.6 O 2 3 2 ; 2 ; &   X e.S.Z.Z.Z.Z.Z.Z.Z.Z.B.z   h N.Z.Z.Z.Z.Z.Z.Z.Z.Z.Z.Z.Z.",
"Z.Z.S.Z.Z.Z.Z.Z.Z.Z.Z.Z.m 9 x.Z.Z.Z.Z.Z.Z.Z.Z.Z.Z.B.6 4 x m n x g f 8 8 4 r.S.Z.Z.Z.Z.Z.Z.S.Z.S.v.f   0.Z.Z.Z.Z.Z.Z.Z.Z.Z.Z.Z.Z.",
"Z.Z.Z.Z.Z.Z.Z.Z.Z.Z.Z.Z.B.B.Z.Z.Z.Z.Z.Z.Z.Z.Z.Z.Z.Z.x ; 7 8 9 9 g h k z & n S.Z.Z.Z.Z.Z.Z.Z.Z.Z.Z.x.l t.Z.S.Z.Z.Z.Z.Z.Z.Z.Z.Z.Z.",
"Z.Z.Z.Z.Z.Z.Z.Z.Z.Z.Z.Z.Z.Z.Z.Z.Z.Z.Z.Z.Z.Z.Z.Z.Z.B.h = 8 h l v 9.y.u.0.; 0.S.Z.Z.Z.Z.Z.Z.Z.Z.Z.Z.Z.Z.Z.Z.Z.Z.Z.Z.Z.Z.Z.Z.Z.Z.Z.",
"Z.Z.Z.Z.Z.Z.Z.S.Z.Z.Z.Z.Z.Z.Z.Z.Z.Z.Z.Z.Z.Z.Z.Z.Z.N.6 3 c w.e.e.:.b j 9 4 t.S.Z.Z.Z.Z.Z.Z.Z.Z.Z.Z.Z.Z.Z.Z.Z.Z.Z.Z.Z.Z.Z.Z.Z.Z.Z.",
"Z.Z.Z.Z.Z.Z.Z.Z.Z.Z.Z.Z.Z.Z.Z.Z.Z.Z.Z.Z.Z.Z.Z.Z.A.B.h - 7 f f 9 f g g g & n S.Z.Z.Z.Z.Z.Z.Z.Z.Z.Z.Z.Z.Z.Z.Z.Z.Z.S.Z.Z.Z.Z.Z.Z.Z.",
"Z.Z.Z.Z.Z.Z.Z.Z.Z.Z.Z.Z.Z.Z.Z.Z.Z.Z.Z.Z.Z.Z.Z.Z.Z.Z.z 2 8 f h l c q.r.0.- 0.Z.Z.Z.Z.Z.Z.Z.Z.Z.Z.Z.Z.Z.Z.Z.Z.Z.Z.Z.Z.Z.Z.Z.Z.Z.Z.",
"Z.Z.Z.Z.Z.Z.Z.Z.Z.Z.Z.Z.Z.Z.Z.Z.Z.Z.Z.Z.Z.Z.Z.Z.Z.B.7 ; z q.e.r.w.9.z 7 4 y.S.Z.Z.Z.Z.Z.Z.Z.Z.Z.Z.Z.Z.Z.Z.Z.Z.Z.Z.Z.Z.Z.Z.Z.Z.Z.",
"Z.Z.Z.Z.Z.Z.Z.Z.Z.Z.Z.Z.Z.S.Z.Z.Z.Z.Z.Z.Z.Z.Z.Z.Z.Z.l = f k g f 9 f f 8 % r.S.Z.Z.Z.Z.Z.Z.Z.Z.Z.Z.Z.Z.Z.Z.Z.Z.Z.Z.Z.Z.Z.Z.Z.Z.Z.",
"Z.Z.Z.Z.Z.Z.Z.Z.Z.Z.Z.Z.Z.Z.Z.Z.Z.Z.Z.Z.Z.Z.Z.Z.Z.A.u.3 8 9 f f k 9.r.z 3 c.S.Z.Z.Z.Z.Z.Z.Z.Z.Z.Z.Z.Z.Z.Z.Z.Z.Z.Z.Z.Z.Z.Z.Z.Z.Z.",
"Z.Z.Z.S.Z.Z.Z.Z.Z.Z.Z.Z.Z.Z.Z.Z.Z.Z.Z.Z.Z.Z.Z.Z.Z.Z.B.f o k 0.t.z.v.9.- 0.Z.Z.Z.Z.Z.Z.Z.Z.Z.Z.S.Z.Z.Z.Z.Z.Z.Z.Z.Z.Z.Z.Z.Z.Z.Z.Z.",
"Z.Z.Z.Z.Z.Z.Z.Z.Z.Z.Z.Z.Z.Z.Z.Z.Z.Z.Z.Z.Z.Z.Z.Z.Z.Z.Z.x.g = 8 l j 6 2 9.B.Z.Z.Z.Z.Z.Z.Z.Z.Z.Z.Z.S.Z.Z.Z.Z.Z.Z.Z.Z.Z.Z.Z.Z.Z.Z.Z.",
"Z.Z.Z.Z.Z.Z.Z.Z.Z.Z.Z.Z.Z.Z.Z.Z.Z.Z.Z.Z.Z.Z.Z.Z.Z.Z.Z.Z.B.r.c j l 9.x.Z.S.Z.Z.Z.Z.Z.Z.Z.Z.Z.Z.Z.Z.Z.Z.Z.Z.Z.Z.Z.Z.Z.Z.Z.Z.Z.Z.Z.",
"Z.Z.Z.Z.Z.Z.Z.Z.S.Z.Z.Z.Z.Z.Z.Z.Z.Z.Z.Z.Z.Z.Z.Z.Z.Z.Z.Z.S.S.S.Z.Z.S.Z.Z.Z.Z.Z.Z.Z.Z.Z.Z.Z.Z.Z.Z.Z.Z.Z.Z.Z.S.Z.Z.Z.Z.Z.Z.Z.S.Z.Z.",
"Z.Z.Z.Z.Z.Z.Z.Z.Z.Z.Z.Z.Z.Z.Z.Z.Z.Z.Z.Z.Z.Z.Z.Z.Z.Z.Z.Z.Z.Z.Z.Z.Z.Z.Z.Z.Z.Z.Z.Z.Z.Z.Z.Z.Z.Z.Z.Z.Z.Z.Z.Z.Z.Z.Z.Z.Z.Z.Z.Z.Z.Z.Z.Z.",
"Z.Z.Z.Z.Z.Z.Z.Z.Z.Z.Z.Z.Z.Z.Z.Z.Z.Z.Z.Z.Z.Z.Z.Z.Z.Z.Z.Z.Z.Z.Z.Z.Z.Z.Z.Z.Z.Z.Z.Z.S.Z.Z.Z.Z.Z.Z.Z.Z.Z.Z.Z.Z.Z.Z.Z.Z.Z.Z.Z.Z.Z.Z.Z."
};
